<?xml version="1.0" standalone="no"?>
<!DOCTYPE svg PUBLIC "-//W3C//DTD SVG 20010904//EN"
 "http://www.w3.org/TR/2001/REC-SVG-20010904/DTD/svg10.dtd">
<svg version="1.0" xmlns="http://www.w3.org/2000/svg"
 width="512.000000pt" height="512.000000pt" viewBox="0 0 512.000000 512.000000"
 preserveAspectRatio="xMidYMid meet">

<g transform="translate(0.000000,512.000000) scale(0.100000,-0.100000)"
fill="purple" stroke="none">
<path d="M1434 4845 c12 -33 1120 -1945 1126 -1945 7 0 1130 1941 1130 1953 0
4 -509 7 -1131 7 -1012 0 -1131 -2 -1125 -15z"/>
<path d="M572 3715 c-309 -535 -562 -979 -562 -984 0 -8 343 -11 1131 -11 994
0 1130 2 1125 15 -8 23 -1108 1928 -1120 1942 -9 10 -149 -226 -574 -962z"/>
<path d="M3967 4669 c-32 -51 -1108 -1920 -1113 -1934 -5 -13 128 -15 1125
-15 792 0 1131 3 1131 11 0 8 -1038 1816 -1110 1933 l-18 29 -15 -24z"/>
<path d="M10 2389 c0 -5 253 -449 562 -984 427 -741 565 -972 574 -962 12 13
1112 1919 1120 1942 5 13 -132 15 -1125 15 -792 0 -1131 -3 -1131 -11z"/>
<path d="M2854 2385 c8 -23 1108 -1929 1120 -1942 9 -10 147 221 574 962 309
535 562 979 562 984 0 8 -339 11 -1131 11 -993 0 -1130 -2 -1125 -15z"/>
<path d="M1997 1255 c-307 -530 -560 -971 -563 -980 -6 -13 113 -15 1125 -15
622 0 1131 3 1131 7 0 12 -1123 1953 -1130 1953 -3 0 -257 -434 -563 -965z"/>
</g>
</svg>
